<svg id="burusports-logo" width="165" height="46" class="h-10" viewBox="0 0 165 46" fill="none" xmlns="http://www.w3.org/2000/svg">
    <path
        id="icon"
        d="M40.2372 20.07C39.7821 15.072 37.4711 10.4259 33.7596 7.04764C30.0482 3.66943 25.2059 1.80431 20.1872 1.81998C19.5472 1.81998 18.8972 1.81995 18.2572 1.90995C13.0987 2.39902 8.32661 4.85557 4.93125 8.76975C1.53589 12.6839 -0.221982 17.7551 0.0224657 22.931C0.266913 28.1069 2.49491 32.9899 6.24405 36.5666C9.9932 40.1434 14.9756 42.1393 20.1572 42.14C20.7872 42.14 21.4372 42.14 22.0772 42.05C27.4008 41.536 32.303 38.9308 35.7077 34.8062C39.1124 30.6815 40.7414 25.3745 40.2372 20.05V20.07ZM18.5872 5.34995C19.1172 5.34995 19.6472 5.27994 20.1772 5.27994C22.848 5.27664 25.4809 5.91092 27.8572 7.12998L17.8572 10.4699C17.3572 10.6299 16.9572 10.8 16.8572 11.07C16.7572 11.34 16.8572 11.65 17.3172 11.83L21.0172 13.1599C21.2972 13.2699 21.8072 13.42 21.9472 13.75C22.0872 14.08 21.5972 14.37 21.3972 14.48C20.6872 14.85 13.7072 18.4 12.5772 18.89C11.9172 19.18 11.2072 19.6 11.2572 20.45C11.3072 21.3 12.4872 21.69 12.4872 21.69L18.5572 23.96C18.7572 24.03 19.1672 24.12 19.2672 24.45C19.3672 24.78 19.0372 24.99 18.8872 25.08C15.4972 26.9 11.8372 28.8299 9.03721 30.2799C6.77721 31.4399 5.67721 30.28 5.28721 29.58V29.5C4.06799 27.0728 3.4581 24.3852 3.5102 21.6695C3.56229 18.9538 4.27481 16.2916 5.58622 13.913C6.89762 11.5344 8.76848 9.5108 11.0371 8.01713C13.3057 6.52346 15.9039 5.60456 18.6072 5.33994L18.5872 5.34995ZM21.7472 38.62C21.2172 38.62 20.6772 38.7 20.1572 38.7H19.6872C17.3572 38.56 17.2372 37.03 18.8572 36.05L27.1272 31.13C30.5072 29.13 31.5972 28.13 31.7672 26.75C32.0772 24.43 28.9272 23.39 27.6272 22.94C21.3072 20.73 20.6772 20.5399 20.4872 20.4699C20.2972 20.3999 19.9772 20.31 19.9572 20.01C19.9372 19.71 20.2572 19.55 20.3772 19.5C20.4972 19.45 26.4972 16.65 27.4272 16.17C29.0072 15.34 29.2572 14.6499 29.0472 14.0899C28.8372 13.5299 27.9772 13.15 27.4272 12.99C26.6372 12.77 21.8572 11.2599 21.7472 11.2199C21.2672 11.0599 21.5572 10.86 21.6572 10.81L29.0172 7.80997C31.9869 9.65654 34.302 12.3888 35.6361 15.6213C36.9701 18.8539 37.2557 22.4236 36.4525 25.8271C35.6494 29.2306 33.7981 32.2962 31.1598 34.5915C28.5214 36.8867 25.2292 38.2958 21.7472 38.62Z"
        fill="#F37321"/>
    <path
        d="M48.0771 0H53.4271V8C53.7571 5.78 55.9971 5.17999 58.1871 5.17999H60.1271C66.8471 5.17999 67.6871 7.57999 67.6871 11.18V13.73C67.6871 17.33 66.8471 19.73 60.1271 19.73H58.2171C54.9971 19.73 53.6771 18.66 53.0871 16.91H53.0371V19.51H48.0371L48.0771 0ZM53.0771 13.2C53.0771 15.33 54.1871 15.8 56.2871 15.8H59.7771C62.3171 15.8 62.5771 14.91 62.5771 13.34V11.67C62.5771 10.1 62.3171 9.21002 59.7771 9.21002H56.2871C54.1871 9.21002 53.0771 9.68 53.0771 11.81V13.2Z"
        fill="black"/>
    <path
        d="M89.4276 19.56H84.1176V17.29H84.0576C83.1176 19.29 81.2676 19.78 78.4076 19.78C75.1176 19.78 70.5176 19.65 70.5176 13.56V5.44H75.8376V13.56C75.8376 14.94 76.9476 15.63 79.2676 15.63H80.4276C82.6976 15.63 84.0576 14.63 84.0576 12.56V5.44H89.4276V19.56Z"
        fill="black"/>
    <path
        d="M132.137 19.56H126.817V17.29H126.767C125.817 19.29 123.967 19.78 121.117 19.78C117.817 19.78 113.227 19.65 113.227 13.56V5.44H118.537V13.56C118.537 14.94 119.647 15.63 121.977 15.63H123.187C125.467 15.63 126.817 14.63 126.817 12.56V5.44H132.137V19.56Z"
        fill="black"/>
    <path
        d="M105.747 11.24H111.067C110.957 5.35999 106.437 5.23999 103.177 5.23999C100.337 5.23999 99.1774 5.75997 98.2274 7.71997H98.1774V5.45001H92.8574V19.57H98.1774V12.46C98.1774 10.46 99.5274 9.38 101.797 9.38H102.327C104.527 9.38 105.637 10.01 105.747 11.25"
        fill="black"/>
    <path
        d="M47.198 35.93H49.428V36.62C49.428 38.37 50.348 39.09 52.798 39.09H57.918C61.498 39.09 62.638 38.95 62.638 36.85V36.74C62.638 35.38 62.248 34.63 59.388 34.63H52.018C48.658 34.63 47.398 33.55 47.398 30.87V30.03C47.398 27.74 48.708 26.47 54.608 26.47H58.278C63.668 26.47 64.428 28.01 64.428 30.01V30.75H62.198V30.62C62.198 28.47 60.748 28.41 58.138 28.41H53.968C50.548 28.41 49.798 28.74 49.798 30.35V30.88C49.798 32.04 50.188 32.7 52.688 32.7H58.998C62.588 32.7 64.998 33.06 64.998 36.88V36.94C64.998 40.94 61.318 41.04 58.398 41.04H54.008C50.478 41.04 47.168 41.04 47.168 36.8L47.198 35.93Z"
        fill="black"/>
    <path
        d="M68.3271 26.69H70.5571V28.93H70.6171C71.3071 27.22 73.2571 26.47 75.3671 26.47H79.9071C83.2971 26.47 86.4671 27.54 86.4671 32.42V34.91C86.4671 39.48 84.4671 41.03 79.4671 41.03H74.9071C72.3771 41.03 71.2371 40.39 70.7371 38.92H70.6871V45.73H68.2871L68.3271 26.69ZM84.0671 32.44C84.0671 29.7 83.1771 28.44 79.8171 28.44H75.0671C71.9171 28.44 70.7271 30.07 70.7271 32.51V35.2C70.7271 38.57 72.8371 39.13 75.3671 39.13H79.6171C82.4071 39.13 84.0671 38.52 84.0671 35.25V32.44Z"
        fill="black"/>
    <path
        d="M89.5781 32.19C89.5781 27.54 92.8881 26.47 97.4181 26.47H100.838C105.368 26.47 108.678 27.54 108.678 32.19V35.3C108.678 39.95 105.368 41.03 100.838 41.03H97.4281C92.8981 41.03 89.5881 39.95 89.5881 35.3L89.5781 32.19ZM106.278 32.33C106.278 29.04 104.338 28.4 101.558 28.4H96.6881C93.9081 28.4 91.9681 29.04 91.9681 32.33V35.16C91.9681 38.45 93.9081 39.09 96.6881 39.09H101.558C104.338 39.09 106.278 38.45 106.278 35.16V32.33Z"
        fill="black"/>
    <path
        d="M124.787 30.75H127.097C126.917 27.75 125.367 26.47 121.157 26.47H118.847C117.207 26.47 115.407 26.91 114.507 28.73H114.427V26.73H112.227V40.85H114.617V31.85C114.617 30.03 115.847 28.42 118.367 28.42H120.637C124.077 28.42 124.487 28.78 124.787 30.77"
        fill="black"/>
    <path
        d="M142.048 35.93C142.048 38.5 141.378 39.09 138.388 39.09H135.688C133.078 39.09 132.168 38.29 132.168 35.66V28.66H141.168V26.72H132.168V23.72H129.768V26.72V28.62V36.62C129.768 38.92 130.828 41.08 135.308 41.08H138.558C143.728 41.08 144.008 38.83 144.008 36.01L142.048 35.93Z"
        fill="black"/>
    <path
        d="M146.428 35.92H148.648V36.62C148.648 38.37 149.558 39.09 151.988 39.09H157.088C160.658 39.09 161.798 38.95 161.798 36.85V36.74C161.798 35.38 161.398 34.63 158.548 34.63H151.218C147.868 34.63 146.618 33.55 146.618 30.87V30.03C146.618 27.74 147.928 26.47 153.788 26.47H157.428C162.798 26.47 163.548 28.02 163.548 30.01V30.75H161.328V30.62C161.328 28.47 159.888 28.41 157.328 28.41H153.178C149.768 28.41 149.018 28.74 149.018 30.35V30.88C149.018 32.04 149.408 32.7 151.898 32.7H158.188C161.758 32.7 164.188 33.06 164.188 36.88V36.94C164.188 40.94 160.528 41.03 157.618 41.03H153.248C149.738 41.03 146.438 41.03 146.438 36.8L146.428 35.92Z"
        fill="black"/>
</svg>
