<svg width="2068" height="1916" viewBox="0 0 2068 1916" fill="none" xmlns="http://www.w3.org/2000/svg">
<rect y="958" width="1354.82" height="1354.82" rx="58" transform="rotate(-45 0 958)" fill="white"/>
<path fill-rule="evenodd" clip-rule="evenodd" d="M1629.79 685.095C1633.97 677.199 1636.94 669.071 1641.64 661.807C1670.47 617.261 1710.77 593.387 1764.34 592.196C1804.45 591.304 1838.5 605.442 1867.36 632.426C1883.85 647.842 1895.61 666.741 1903.28 688.076C1905.94 695.462 1906.02 695.578 1913.77 694.319C1958.2 687.097 1996.05 701.261 2027.57 731.774C2051.76 755.196 2064.76 784.571 2066.77 818.714C2069.25 860.729 2055.29 896.388 2025.65 925.57C2002.38 948.482 1974.04 961.325 1941 963.007C1883.42 965.94 1825.8 963.511 1768.2 964.312C1763.53 964.377 1758.84 964.594 1754.2 964.251C1748.39 963.822 1743.98 964.198 1743.3 971.753C1742.99 975.15 1740.43 978.404 1737.58 980.913C1735.84 982.453 1734.26 984.185 1732.61 985.835C1482.56 1235.89 1232.51 1485.94 982.456 1735.99C965.131 1753.32 953.45 1753.26 935.951 1735.76C685.891 1485.7 435.84 1235.63 185.723 985.629C179.168 979.077 173.644 972.415 173.93 962.464C174.111 956.185 176.119 950.765 180.309 946.144C181.651 944.665 183.12 943.3 184.534 941.886C435.291 691.126 686.057 440.374 936.763 189.563C943.602 182.721 950.654 177.341 961.085 178.186C965.571 178.55 969.684 179.425 973.154 182.182C976.79 185.069 980.313 188.14 983.595 191.42C1151.89 359.666 1320.16 527.942 1488.43 696.214C1496.44 704.221 1496.23 703.894 1505.28 697.485C1540.8 672.353 1579 665.531 1620.31 681.349C1623.35 682.511 1626.36 683.737 1629.79 685.095ZM212.114 963.678C213.49 969.295 217.536 971.966 220.728 975.157C462.451 1216.94 704.206 1458.69 945.963 1700.44C948.082 1702.56 950.106 1704.82 952.467 1706.64C957.057 1710.17 961.611 1710.02 966.08 1706.35C967.875 1704.87 969.42 1703.09 971.071 1701.45C1003.63 1668.97 1036.22 1636.53 1068.74 1604.01C1277.07 1395.71 1485.38 1187.39 1693.69 979.076C1695.81 976.956 1698.03 974.928 1700.02 972.688C1701.91 970.556 1705.71 968.827 1704.51 965.641C1703.22 962.231 1699.25 963.849 1696.49 963.82C1643.18 963.261 1589.86 963.002 1536.56 962.938C1098.67 962.419 660.768 962.643 222.869 962.677C219.615 962.679 216.276 962.055 212.114 963.678ZM1489.2 741.737C1486.21 738.219 1484.03 735.278 1481.48 732.72C1311.84 563.039 1142.14 393.428 972.602 223.648C960.258 211.287 956.906 212.316 945.267 223.972C807.283 362.174 669.148 500.227 531.056 638.321C528.465 640.912 525.858 643.488 523.337 646.147C522.086 647.465 519.858 648.584 522.336 651.731C525.221 650.226 528.36 648.707 531.389 646.991C603.205 606.285 675.055 565.637 746.731 524.685C752.463 521.41 756.377 521.588 761.872 525.01C801.723 549.823 841.906 574.101 881.686 599.024C888.284 603.158 892.648 603.217 899.284 598.952C950.258 566.183 1001.53 533.884 1052.76 501.504C1059.11 497.486 1058.28 495.876 1065.06 502.709C1078.44 516.195 1091.94 529.552 1105.34 543.014C1217.49 655.672 1330.73 767.239 1441.96 880.813C1461.12 900.381 1481.76 918.254 1506.23 931.139C1523.28 940.117 1541.18 945.325 1560.7 945.301C1684.01 945.15 1807.32 945.234 1930.62 945.199C1937.95 945.197 1945.26 944.99 1952.51 943.553C2018.64 930.449 2059.84 868.711 2046.41 802.748C2034.21 742.835 1974.56 701.93 1914.25 712.191C1907.19 713.392 1900.21 715.046 1892.77 716.576C1886.91 688.045 1874.54 663.801 1853.58 644.349C1832.62 624.903 1807.92 612.55 1779.44 610.909C1706.99 606.73 1662.11 642.713 1639.67 710.824C1614.81 694.407 1588.04 687.29 1558.81 693.095C1529.22 698.971 1506.67 715.618 1489.2 741.737Z" fill="#020201"/>
<path fill-rule="evenodd" clip-rule="evenodd" d="M212.113 963.679C216.276 962.056 219.614 962.68 222.869 962.68C660.768 962.646 1098.67 962.422 1536.57 962.94C1589.86 963.003 1643.18 963.264 1696.49 963.823C1699.25 963.852 1703.22 962.234 1704.51 965.644C1705.71 968.83 1701.91 970.558 1700.02 972.69C1698.04 974.93 1695.81 976.958 1693.69 979.078C1485.38 1187.39 1277.07 1395.71 1068.75 1604.01C1036.22 1636.53 1003.63 1668.97 971.071 1701.45C969.42 1703.1 967.875 1704.87 966.08 1706.35C961.61 1710.02 957.057 1710.18 952.467 1706.64C950.106 1704.83 948.082 1702.56 945.963 1700.44C704.205 1458.69 462.45 1216.94 220.728 975.16C217.535 971.967 213.489 969.297 212.113 963.679ZM1082.05 1018.33C1071.27 1018.15 1059.31 1018.68 1047.44 1020.67C1033.94 1022.92 1020.63 1025.8 1008.68 1032.97C999.965 1038.2 995.223 1045.34 996.49 1056.09C997.696 1066.33 998.086 1076.67 998.865 1086.96C1002.08 1129.45 1005.29 1171.94 1008.54 1214.44C1010.16 1235.68 1012.4 1256.89 1013.29 1278.17C1013.81 1290.38 1020.18 1297.14 1030.19 1301.71C1034.71 1303.78 1039.48 1305.37 1044.28 1306.68C1064.18 1312.12 1084.5 1312.08 1104.77 1310C1117.02 1308.74 1129.12 1306.03 1139.94 1299.59C1146.77 1295.52 1151.81 1290.32 1152.44 1281.6C1155.51 1239.43 1158.86 1197.28 1162.05 1155.12C1164.57 1121.92 1166.83 1088.71 1169.62 1055.53C1170.34 1046.96 1167.56 1040.57 1161.07 1035.5C1155.77 1031.36 1149.7 1028.65 1143.34 1026.54C1123.82 1020.08 1103.7 1018.09 1082.05 1018.33ZM833.457 1018.34C820.655 1018.18 808.687 1018.72 796.833 1020.75C783.341 1023.06 770.02 1025.98 758.179 1033.34C749.881 1038.49 745.395 1045.52 746.552 1055.81C747.703 1066.06 748.177 1076.39 748.959 1086.68C752.111 1128.17 755.262 1169.66 758.427 1211.15C760.098 1233.06 762.419 1254.94 763.256 1276.88C763.785 1290.76 771.052 1298.13 782.749 1302.81C786.445 1304.29 790.23 1305.62 794.074 1306.65C814.324 1312.07 834.945 1312.15 855.553 1309.9C867.461 1308.6 879.233 1305.95 889.772 1299.73C896.607 1295.7 901.828 1290.58 902.464 1281.86C904.885 1248.66 907.558 1215.48 910.086 1182.29C913.297 1140.13 916.326 1097.96 919.748 1055.82C920.473 1046.9 917.581 1040.24 910.605 1035.06C903.813 1030.02 896.048 1027.03 888.001 1024.8C869.902 1019.79 851.408 1017.92 833.457 1018.34ZM1082.71 1498.97C1126.36 1499.09 1161.77 1464.14 1161.99 1420.73C1162.2 1377.45 1127.14 1342.14 1083.38 1341.56C1040.33 1340.99 1004.4 1376.66 1004.32 1420.06C1004.23 1463.85 1038.99 1498.84 1082.71 1498.97ZM832.195 1498.96C875.932 1499.32 911.53 1464.69 911.996 1421.33C912.462 1377.89 877.852 1342.48 834.07 1341.58C791.031 1340.71 754.754 1376.14 754.339 1419.46C753.92 1463.19 788.602 1498.61 832.195 1498.96Z" fill="#FE9800"/>
<path fill-rule="evenodd" clip-rule="evenodd" d="M1489.2 741.738C1506.67 715.619 1529.22 698.972 1558.81 693.096C1588.04 687.291 1614.81 694.409 1639.67 710.825C1662.11 642.714 1706.99 606.731 1779.44 610.91C1807.91 612.552 1832.62 624.904 1853.58 644.35C1874.54 663.801 1886.9 688.044 1892.77 716.576C1900.21 715.046 1907.19 713.393 1914.25 712.192C1974.56 701.93 2034.2 742.836 2046.4 802.749C2059.83 868.712 2018.64 930.45 1952.51 943.554C1945.26 944.991 1937.94 945.198 1930.62 945.2C1807.31 945.234 1684 945.15 1560.7 945.302C1541.18 945.325 1523.28 940.117 1506.23 931.14C1481.75 918.255 1461.12 900.382 1441.96 880.814C1330.73 767.24 1217.49 655.673 1105.34 543.015C1091.94 529.553 1078.43 516.197 1065.05 502.71C1058.28 495.877 1059.11 497.487 1052.75 501.505C1001.53 533.885 950.254 566.185 899.28 598.953C892.644 603.219 888.28 603.159 881.682 599.025C841.902 574.102 801.718 549.824 761.868 525.011C756.374 521.589 752.46 521.41 746.727 524.686C675.051 565.638 603.202 606.286 531.385 646.992C528.357 648.708 525.217 650.227 522.332 651.732C519.854 648.585 522.082 647.466 523.333 646.148C525.854 643.489 528.461 640.913 531.052 638.322C669.147 500.228 807.282 362.175 945.266 223.973C956.905 212.317 960.257 211.287 972.601 223.649C1142.14 393.429 1311.84 563.04 1481.47 732.721C1484.03 735.279 1486.21 738.22 1489.2 741.738ZM1105.86 467.899C1107.22 471.891 1109.88 473.506 1111.94 475.571C1157.29 521.172 1202.64 566.787 1248.11 612.282C1303.23 667.446 1358.47 722.509 1413.66 777.602C1443.39 807.267 1473.13 836.912 1502.88 866.546C1504.99 868.654 1507.06 870.915 1509.5 872.575C1515.03 876.328 1522.29 875.402 1526.86 870.717C1531.33 866.13 1532.13 858.603 1528.32 853.29C1526.4 850.61 1523.88 848.344 1521.53 845.994C1459.28 783.811 1397.04 721.629 1334.76 659.476C1268.24 593.086 1201.69 526.727 1135.15 460.353C1134.2 459.413 1133.18 458.533 1132.36 457.491C1129.88 454.333 1127.39 453.878 1123.9 456.335C1118.19 460.347 1112.16 463.895 1105.86 467.899ZM1672.66 760.496C1665.83 760.177 1659.23 761.196 1652.75 762.761C1634.55 767.157 1619.69 776.529 1609.66 792.71C1608.39 794.77 1605.48 797.215 1607.92 799.651C1610.83 802.546 1612.42 798.713 1614.32 797.274C1615.91 796.074 1617.28 794.586 1618.81 793.301C1629.95 783.94 1642.34 776.964 1656.86 774.593C1686.51 769.749 1711.11 780.657 1732.59 799.98C1744.13 810.358 1750.27 823.863 1752.62 839.201C1754.15 849.177 1754.34 859.074 1752.77 869.043C1752.48 870.839 1751.71 873.382 1754.21 874.226C1757.35 875.286 1758.03 872.463 1758.93 870.399C1759.86 868.27 1760.77 866.111 1761.43 863.89C1767.53 843.469 1764.2 824.139 1753.21 806.392C1734.76 776.619 1707.06 762.452 1672.66 760.496Z" fill="white"/>
<path fill-rule="evenodd" clip-rule="evenodd" d="M1082.05 1018.33C1103.7 1018.09 1123.82 1020.08 1143.33 1026.54C1149.7 1028.65 1155.77 1031.36 1161.07 1035.5C1167.56 1040.57 1170.34 1046.96 1169.62 1055.53C1166.83 1088.71 1164.57 1121.92 1162.05 1155.12C1158.85 1197.28 1155.51 1239.43 1152.44 1281.6C1151.8 1290.32 1146.77 1295.52 1139.94 1299.59C1129.12 1306.03 1117.01 1308.74 1104.77 1310C1084.5 1312.08 1064.18 1312.12 1044.28 1306.68C1039.48 1305.37 1034.71 1303.78 1030.19 1301.71C1020.18 1297.14 1013.8 1290.38 1013.29 1278.17C1012.4 1256.89 1010.16 1235.68 1008.53 1214.44C1005.29 1171.95 1002.08 1129.45 998.865 1086.96C998.086 1076.67 997.696 1066.33 996.49 1056.09C995.223 1045.34 999.966 1038.2 1008.68 1032.97C1020.62 1025.8 1033.94 1022.92 1047.44 1020.67C1059.31 1018.68 1071.27 1018.15 1082.05 1018.33Z" fill="#020201"/>
<path fill-rule="evenodd" clip-rule="evenodd" d="M833.457 1018.34C851.408 1017.92 869.902 1019.79 888.003 1024.8C896.05 1027.03 903.815 1030.02 910.607 1035.06C917.583 1040.24 920.474 1046.9 919.75 1055.82C916.328 1097.96 913.299 1140.13 910.088 1182.28C907.56 1215.48 904.887 1248.66 902.466 1281.86C901.829 1290.58 896.609 1295.7 889.774 1299.73C879.235 1305.95 867.463 1308.6 855.555 1309.9C834.947 1312.15 814.326 1312.07 794.076 1306.65C790.232 1305.62 786.447 1304.29 782.751 1302.81C771.054 1298.13 763.787 1290.76 763.258 1276.88C762.421 1254.94 760.1 1233.06 758.429 1211.15C755.264 1169.66 752.114 1128.17 748.961 1086.68C748.179 1076.38 747.705 1066.06 746.554 1055.81C745.397 1045.52 749.883 1038.49 758.181 1033.34C770.022 1025.98 783.343 1023.06 796.835 1020.75C808.687 1018.72 820.655 1018.18 833.457 1018.34Z" fill="#020201"/>
<path fill-rule="evenodd" clip-rule="evenodd" d="M1082.71 1498.97C1038.99 1498.84 1004.23 1463.85 1004.32 1420.06C1004.4 1376.66 1040.33 1340.99 1083.38 1341.56C1127.14 1342.14 1162.2 1377.45 1161.99 1420.73C1161.77 1464.14 1126.35 1499.09 1082.71 1498.97Z" fill="#020201"/>
<path fill-rule="evenodd" clip-rule="evenodd" d="M832.195 1498.96C788.602 1498.61 753.92 1463.19 754.339 1419.46C754.754 1376.14 791.031 1340.71 834.07 1341.58C877.852 1342.48 912.462 1377.9 911.996 1421.33C911.53 1464.69 875.932 1499.32 832.195 1498.96Z" fill="#020201"/>
<path fill-rule="evenodd" clip-rule="evenodd" d="M1105.86 467.899C1112.16 463.895 1118.19 460.347 1123.9 456.336C1127.39 453.879 1129.88 454.334 1132.36 457.492C1133.18 458.534 1134.21 459.414 1135.15 460.354C1201.69 526.728 1268.24 593.087 1334.76 659.477C1397.04 721.629 1459.28 783.812 1521.53 845.995C1523.88 848.345 1526.4 850.611 1528.33 853.291C1532.13 858.604 1531.33 866.131 1526.86 870.718C1522.29 875.404 1515.03 876.329 1509.5 872.576C1507.06 870.916 1504.99 868.655 1502.88 866.547C1473.13 836.912 1443.39 807.268 1413.67 777.603C1358.47 722.509 1303.24 667.447 1248.11 612.283C1202.64 566.788 1157.3 521.173 1111.94 475.572C1109.88 473.507 1107.22 471.891 1105.86 467.899Z" fill="#020201"/>
<path fill-rule="evenodd" clip-rule="evenodd" d="M1672.66 760.496C1707.06 762.452 1734.76 776.619 1753.21 806.392C1764.2 824.139 1767.53 843.468 1761.43 863.889C1760.77 866.11 1759.87 868.27 1758.94 870.399C1758.03 872.463 1757.35 875.285 1754.21 874.225C1751.71 873.381 1752.48 870.839 1752.77 869.043C1754.34 859.074 1754.15 849.177 1752.62 839.201C1750.27 823.863 1744.13 810.358 1732.6 799.98C1711.11 780.658 1686.51 769.749 1656.86 774.592C1642.34 776.963 1629.95 783.94 1618.81 793.301C1617.28 794.585 1615.91 796.073 1614.32 797.274C1612.42 798.712 1610.83 802.544 1607.92 799.65C1605.48 797.213 1608.39 794.768 1609.66 792.709C1619.69 776.528 1634.55 767.157 1652.75 762.761C1659.23 761.196 1665.83 760.176 1672.66 760.496Z" fill="#020201"/>
</svg>
