<svg width="2356" height="1916" viewBox="0 0 2356 1916" fill="none" xmlns="http://www.w3.org/2000/svg">
<rect y="958" width="1354.82" height="1354.82" rx="58" transform="rotate(-45 0 958)" fill="white"/>
<path fill-rule="evenodd" clip-rule="evenodd" d="M1459.09 661.993C1504.76 618.885 1553.9 612.179 1607.99 644.463C1612.87 631.627 1617.49 618.835 1624.7 607.239C1650.48 565.775 1686.97 540.031 1735.25 531.074C1770.14 524.602 1803.13 530.08 1834.83 545.259C1842.75 549.051 1841.55 550.044 1845.91 540.747C1871.02 487.14 1912.4 455.596 1971.68 449.266C2017.28 444.396 2056.9 458.916 2090.34 489.695C2110.54 508.288 2124.05 531.476 2131.85 557.886C2134.24 565.944 2134.29 565.988 2142.23 563.895C2192.57 550.632 2239.9 583.338 2249.32 631.972C2250.26 636.824 2250.07 641.918 2250.17 646.905C2250.4 657.984 2248.79 655.362 2258.05 659.066C2279.09 667.48 2297.49 679.753 2313 696.181C2336.06 720.613 2350.06 749.551 2354.12 782.952C2359.49 827.072 2348.01 866.737 2319.89 900.966C2289.48 937.995 2249.75 957.592 2201.71 957.716C2054.04 958.1 1906.38 957.857 1758.71 957.857C1756.71 957.857 1754.7 957.981 1752.72 957.832C1748.32 957.501 1745.57 957.954 1745.02 963.767C1744.42 970.163 1740.14 975.461 1735.18 979.504C1729.72 983.948 1724.93 989.022 1719.99 993.959C1493.22 1220.68 1266.55 1447.49 1039.63 1674.06C1019.84 1693.82 999.745 1713.31 979.859 1732.99C965.368 1747.33 952.095 1747.25 937.596 1732.75C748.326 1543.48 559.104 1354.17 369.77 1164.97C307.304 1102.55 244.59 1040.37 181.895 978.182C173.32 969.675 169.681 960.3 173.951 948.493C175.374 944.557 178.116 941.759 180.935 938.939C228.309 891.561 275.282 843.774 323.175 796.927C371.54 749.616 419.135 701.542 467.001 653.738C623.842 497.098 780.524 340.298 937.242 183.534C941.267 179.508 945.158 175.214 950.921 173.952C960.13 171.934 968.839 172.754 975.879 180.03C976.806 180.988 977.748 181.931 978.697 182.867C1109.49 311.782 1238.8 442.187 1368.79 571.906C1397.57 600.632 1426.3 629.412 1455.06 658.162C1456.23 659.332 1457.46 660.446 1459.09 661.993ZM1618.52 678.181C1593.53 651.601 1564.8 638.202 1529.65 643.657C1494.75 649.071 1470.99 669.721 1455.52 703.035C1452.46 699.372 1450.53 696.656 1448.2 694.336C1288.95 535.426 1130.52 375.696 970.625 217.438C969.914 216.734 969.216 216.019 968.499 215.322C960.166 207.226 956.611 207.193 948.395 215.14C947.437 216.068 946.503 217.02 945.561 217.962C806.5 357.019 667.442 496.076 528.385 635.136C526.029 637.492 523.685 639.862 521.37 642.259C520.375 643.29 520.064 644.456 521.551 646.281C524.606 646.185 527.128 643.885 529.83 642.355C601.374 601.818 672.95 561.337 744.296 520.454C751.352 516.411 756.159 516.824 762.853 521.013C802.37 545.742 842.294 569.819 881.831 594.519C887.86 598.286 891.932 597.979 897.725 594.217C926.213 575.721 955.078 557.804 983.653 539.439C988.005 536.642 990.646 536.461 994.536 540.39C1010 556.005 1026.01 571.075 1041.56 586.604C1117.74 662.679 1193.85 738.829 1269.95 814.985C1274.66 819.695 1279.17 824.608 1283.62 829.567C1315.19 864.782 1349.94 896.125 1392.28 918.078C1417.72 931.266 1444.46 939.69 1473.49 939.685C1715.81 939.645 1958.14 939.724 2200.46 939.625C2274.83 939.595 2335.43 880.302 2337.5 806.029C2339.14 747.458 2302.49 693.673 2247.4 673.842C2244.27 672.717 2241.07 671.762 2237.86 670.898C2232.74 669.519 2230.25 667.259 2231.21 661.048C2232.67 651.54 2233.18 641.84 2230.88 632.235C2220.39 588.409 2173.19 566.343 2132.68 586.304C2128.96 588.137 2125.62 591.17 2121.06 591.124C2110.79 510.891 2053.79 473.172 2006.59 468.173C1925.25 459.559 1875.81 499.887 1851.62 575.358C1763.56 510.061 1634.3 559.539 1618.52 678.181ZM1705.19 958.104C1667.6 955.749 219.046 956.781 210.809 959.164C211.168 963.681 214.909 965.827 217.64 968.538C257.847 1008.43 297.962 1048.42 338.065 1088.42C539.337 1289.15 740.196 1490.3 941.2 1691.31C943.555 1693.66 945.879 1696.05 948.266 1698.38C956.227 1706.13 960.368 1706.13 968.439 1698.21C991.967 1675.11 1015.49 1651.99 1038.83 1628.71C1252.32 1415.68 1465.48 1202.33 1678.73 989.069C1686.03 981.764 1693.33 974.446 1700.5 967.01C1702.68 964.744 1705.95 962.936 1705.19 958.104Z" fill="#020202"/>
<path fill-rule="evenodd" clip-rule="evenodd" d="M1618.52 678.181C1634.3 559.539 1763.56 510.061 1851.62 575.36C1875.8 499.889 1925.25 459.561 2006.58 468.175C2053.79 473.174 2110.78 510.893 2121.06 591.126C2125.62 591.172 2128.96 588.139 2132.68 586.306C2173.19 566.345 2220.38 588.41 2230.88 632.237C2233.17 641.841 2232.67 651.542 2231.21 661.05C2230.25 667.261 2232.74 669.521 2237.86 670.9C2241.07 671.764 2244.27 672.719 2247.39 673.844C2302.49 693.674 2339.13 747.459 2337.5 806.031C2335.43 880.303 2274.83 939.596 2200.46 939.627C1958.13 939.726 1715.81 939.647 1473.49 939.687C1444.46 939.692 1417.71 931.268 1392.28 918.08C1349.93 896.127 1315.19 864.784 1283.61 829.569C1279.17 824.61 1274.65 819.697 1269.95 814.987C1193.85 738.831 1117.74 662.681 1041.56 586.606C1026.01 571.077 1010 556.007 994.534 540.392C990.644 536.463 988.003 536.644 983.651 539.441C955.076 557.806 926.212 575.723 897.723 594.219C891.93 597.981 887.859 598.287 881.829 594.521C842.293 569.821 802.368 545.745 762.851 521.015C756.158 516.827 751.35 516.413 744.294 520.456C672.948 561.34 601.372 601.82 529.828 642.357C527.126 643.887 523.712 647.752 521.549 646.283C519.556 644.929 520.373 643.292 521.368 642.261C523.682 639.864 526.026 637.494 528.383 635.138C667.442 496.076 806.5 357.019 945.56 217.961C946.502 217.019 947.436 216.066 948.394 215.139C956.611 207.192 960.165 207.225 968.498 215.321C969.215 216.018 969.913 216.733 970.624 217.437C1130.52 375.696 1288.95 535.424 1448.2 694.335C1450.52 696.655 1452.45 699.371 1455.51 703.034C1470.99 669.721 1494.75 649.07 1529.64 643.656C1564.8 638.201 1593.53 651.601 1618.52 678.181ZM1105.07 463.33C1107.45 465.845 1108.98 467.533 1110.59 469.143C1229.57 588.214 1348.56 707.284 1467.56 826.34C1478.16 836.948 1488.76 847.564 1499.52 858.01C1505.58 863.891 1511.59 864.694 1517.57 860.989C1525.08 856.334 1526.45 846.455 1520.01 839.44C1514.61 833.567 1508.42 828.429 1502.77 822.78C1380.89 700.947 1259.04 579.087 1137.19 457.232C1135.3 455.346 1133.31 453.552 1131.55 451.556C1129.4 449.113 1127.39 448.987 1124.65 450.833C1118.6 454.919 1112.35 458.712 1105.07 463.33ZM1036.42 506.977C1039.47 510.21 1041.87 512.893 1044.41 515.435C1157.71 628.757 1271.03 742.068 1384.35 855.374C1386.47 857.492 1388.5 859.737 1390.84 861.585C1394.38 864.382 1398.38 865.575 1402.98 864.306C1413.48 861.405 1417.04 849.782 1409.46 841.436C1403.65 835.042 1396.97 829.459 1390.85 823.341C1283.17 715.698 1175.52 608.029 1067.86 500.367C1065.97 498.484 1064 496.689 1062.2 494.728C1060.23 492.573 1058.28 492.791 1056.04 494.266C1049.74 498.408 1043.38 502.472 1036.42 506.977ZM1810.46 669.309C1815.34 669.093 1822.92 670.075 1830.45 671.567C1836.66 672.797 1842.74 674.486 1848.63 676.839C1883.69 690.861 1909.93 715.231 1929.15 747.152C1942.3 768.98 1946.29 792.957 1942.45 818.31C1939.94 834.901 1934.88 850.627 1928.51 866.049C1927.62 868.218 1924.4 871.102 1927.4 873.071C1930.3 874.972 1931.83 871.166 1933.46 869.332C1935.67 866.855 1937.68 864.168 1939.51 861.394C1956.92 834.91 1961.89 805.793 1954.73 775.355C1940.79 716.127 1903.49 677.532 1845.58 660.478C1806.26 648.897 1768.99 655.007 1737.2 683.045C1734.86 685.112 1728.66 686.677 1731.48 690.594C1733.93 693.993 1737.97 689.456 1741 687.853C1761.88 676.817 1783.75 669.491 1810.46 669.309ZM1730.14 852.978C1729.97 856.334 1729.68 861.321 1729.48 866.311C1729.43 867.637 1729.68 868.971 1731.34 869.346C1732.75 869.665 1734.18 869.334 1734.92 868.242C1736.02 866.607 1736.87 864.75 1737.57 862.891C1744.25 845.126 1743.84 827.175 1735.4 810.495C1721.83 783.664 1700.35 765.402 1670.72 758.241C1644.44 751.886 1619.77 755.369 1598.33 773.233C1592.38 778.19 1587.71 784.25 1584.19 791.15C1583.59 792.32 1583.43 793.784 1584.6 794.833C1585.8 795.894 1587.11 795.498 1588.16 794.611C1590.7 792.458 1593.08 790.118 1595.64 787.991C1614.24 772.53 1635.15 765.386 1659.55 769.327C1702.7 776.296 1730.84 808.775 1730.14 852.978Z" fill="white"/>
<path fill-rule="evenodd" clip-rule="evenodd" d="M1705.19 958.103C1705.95 962.935 1702.68 964.744 1700.5 967.009C1693.33 974.445 1686.03 981.763 1678.73 989.068C1465.48 1202.33 1252.32 1415.68 1038.83 1628.71C1015.49 1651.99 991.968 1675.11 968.439 1698.21C960.368 1706.13 956.227 1706.13 948.266 1698.38C945.878 1696.05 943.555 1693.66 941.2 1691.31C740.196 1490.3 539.338 1289.15 338.065 1088.42C297.962 1048.42 257.847 1008.43 217.64 968.537C214.909 965.826 211.168 963.68 210.809 959.163C219.046 956.78 1667.6 955.747 1705.19 958.103ZM1058.31 1246.11C1058.98 1245.67 1060.55 1244.93 1061.72 1243.78C1105.72 1200.61 1149.69 1157.42 1193.61 1114.17C1201.19 1106.7 1201.13 1105.5 1193.74 1098.09C1165.26 1069.55 1136.75 1041.04 1108.21 1012.56C1100.42 1004.79 1098.94 1004.83 1091.27 1012.56C1053.52 1050.66 1015.77 1088.76 978.031 1126.86C972.638 1132.3 967.324 1137.83 961.876 1143.21C956.673 1148.36 956.615 1148.3 951.084 1142.95C950.365 1142.26 949.662 1141.55 948.963 1140.84C915.6 1106.82 882.234 1072.81 848.876 1038.8C840.246 1030 831.662 1021.15 823.02 1012.36C815.654 1004.87 813.691 1004.91 805.97 1012.47C805.256 1013.17 804.559 1013.89 803.852 1014.6C776.993 1041.46 750.133 1068.32 723.276 1095.18C721.627 1096.83 719.873 1098.39 718.362 1100.16C714.528 1104.65 714.505 1107.1 718.255 1111.45C719.774 1113.21 721.529 1114.77 723.193 1116.4C764.551 1157.02 805.984 1197.57 847.226 1238.32C858.805 1249.75 858.825 1246.34 847.461 1257.56C805.503 1299 763.356 1340.25 721.291 1381.58C713.354 1389.38 713.317 1390.7 721.012 1398.44C748.718 1426.34 776.453 1454.2 804.18 1482.08C805.59 1483.49 806.942 1484.98 808.456 1486.28C813.549 1490.64 815.633 1490.63 820.438 1486.31C821.674 1485.2 822.784 1483.94 823.952 1482.75C866.223 1439.74 908.476 1396.72 950.781 1353.74C956.612 1347.82 956.796 1347.86 962.373 1353.4C987.891 1378.74 1012.39 1405.08 1038.38 1429.97C1056.65 1447.47 1073.93 1466.02 1091.71 1484.05C1099.12 1491.57 1100.42 1491.59 1107.82 1484.21C1136.36 1455.73 1164.87 1427.21 1193.35 1398.67C1201.3 1390.7 1201.3 1389.72 1193.37 1381.92C1166.77 1355.75 1139.92 1329.82 1113.55 1303.42C1095.2 1285.04 1077.48 1266.04 1058.31 1246.11Z" fill="#FE0000"/>
<path fill-rule="evenodd" clip-rule="evenodd" d="M1105.07 463.329C1112.35 458.711 1118.6 454.918 1124.65 450.833C1127.39 448.986 1129.4 449.112 1131.55 451.556C1133.31 453.552 1135.3 455.346 1137.18 457.232C1259.04 579.086 1380.89 700.948 1502.77 822.781C1508.42 828.43 1514.61 833.567 1520 839.44C1526.45 846.455 1525.08 856.335 1517.57 860.99C1511.59 864.695 1505.58 863.891 1499.52 858.01C1488.76 847.564 1478.16 836.949 1467.56 826.341C1348.56 707.284 1229.57 588.214 1110.59 469.143C1108.98 467.532 1107.45 465.844 1105.07 463.329Z" fill="#020202"/>
<path fill-rule="evenodd" clip-rule="evenodd" d="M1036.42 506.977C1043.39 502.472 1049.74 498.409 1056.04 494.267C1058.28 492.792 1060.23 492.574 1062.2 494.729C1064 496.69 1065.98 498.485 1067.86 500.368C1175.52 608.03 1283.17 715.699 1390.85 823.341C1396.97 829.459 1403.66 835.042 1409.46 841.436C1417.04 849.782 1413.48 861.405 1402.98 864.306C1398.38 865.576 1394.38 864.382 1390.84 861.585C1388.5 859.737 1386.47 857.492 1384.35 855.374C1271.03 742.067 1157.71 628.757 1044.41 515.435C1041.87 512.893 1039.47 510.21 1036.42 506.977Z" fill="#020202"/>
<path fill-rule="evenodd" clip-rule="evenodd" d="M1810.46 669.308C1783.75 669.491 1761.88 676.816 1741 687.852C1737.97 689.456 1733.93 693.993 1731.48 690.593C1728.67 686.676 1734.86 685.112 1737.2 683.044C1768.99 655.006 1806.26 648.896 1845.59 660.477C1903.49 677.531 1940.78 716.126 1954.73 775.354C1961.89 805.792 1956.92 834.909 1939.51 861.393C1937.68 864.167 1935.67 866.855 1933.46 869.331C1931.83 871.165 1930.31 874.972 1927.4 873.07C1924.4 871.1 1927.62 868.216 1928.51 866.048C1934.88 850.626 1939.94 834.9 1942.45 818.309C1946.29 792.955 1942.3 768.979 1929.15 747.151C1909.93 715.23 1883.69 690.861 1848.63 676.838C1842.74 674.484 1836.66 672.796 1830.45 671.566C1822.92 670.073 1815.34 669.092 1810.46 669.308Z" fill="#020202"/>
<path fill-rule="evenodd" clip-rule="evenodd" d="M1730.14 852.977C1730.84 808.774 1702.7 776.295 1659.56 769.328C1635.15 765.387 1614.24 772.531 1595.64 787.992C1593.08 790.119 1590.7 792.459 1588.16 794.612C1587.11 795.499 1585.8 795.894 1584.6 794.834C1583.43 793.785 1583.59 792.321 1584.19 791.151C1587.71 784.251 1592.39 778.191 1598.34 773.234C1619.77 755.37 1644.44 751.886 1670.73 758.242C1700.35 765.403 1721.83 783.665 1735.4 810.496C1743.84 827.176 1744.25 845.127 1737.57 862.892C1736.87 864.75 1736.03 866.608 1734.92 868.243C1734.18 869.335 1732.75 869.666 1731.34 869.347C1729.68 868.972 1729.43 867.638 1729.48 866.312C1729.68 861.32 1729.97 856.333 1730.14 852.977Z" fill="#020202"/>
<path fill-rule="evenodd" clip-rule="evenodd" d="M1058.31 1246.11C1077.47 1266.04 1095.2 1285.05 1113.55 1303.42C1139.92 1329.82 1166.76 1355.75 1193.36 1381.92C1201.3 1389.72 1201.3 1390.7 1193.34 1398.68C1164.87 1427.22 1136.36 1455.73 1107.82 1484.21C1100.42 1491.6 1099.12 1491.57 1091.71 1484.05C1073.93 1466.02 1056.65 1447.47 1038.37 1429.97C1012.39 1405.08 987.889 1378.74 962.371 1353.4C956.794 1347.86 956.61 1347.82 950.779 1353.75C908.474 1396.72 866.22 1439.75 823.95 1482.76C822.782 1483.94 821.673 1485.2 820.436 1486.31C815.63 1490.63 813.546 1490.64 808.454 1486.28C806.939 1484.99 805.588 1483.5 804.178 1482.08C776.451 1454.2 748.716 1426.34 721.01 1398.44C713.316 1390.7 713.353 1389.38 721.289 1381.58C763.353 1340.25 805.501 1299 847.459 1257.57C858.822 1246.34 858.803 1249.76 847.224 1238.32C805.982 1197.58 764.549 1157.03 723.191 1116.4C721.527 1114.77 719.771 1113.21 718.253 1111.45C714.503 1107.1 714.526 1104.65 718.36 1100.16C719.871 1098.39 721.625 1096.83 723.274 1095.18C750.131 1068.32 776.991 1041.46 803.85 1014.6C804.557 1013.89 805.254 1013.18 805.968 1012.48C813.689 1004.91 815.652 1004.87 823.018 1012.36C831.661 1021.15 840.245 1030 848.874 1038.8C882.231 1072.82 915.598 1106.83 948.961 1140.84C949.66 1141.55 950.363 1142.26 951.082 1142.96C956.613 1148.31 956.671 1148.36 961.874 1143.22C967.322 1137.83 972.637 1132.31 978.029 1126.86C1015.77 1088.76 1053.51 1050.66 1091.27 1012.57C1098.93 1004.83 1100.42 1004.79 1108.21 1012.56C1136.75 1041.04 1165.26 1069.55 1193.74 1098.09C1201.13 1105.5 1201.19 1106.7 1193.61 1114.17C1149.69 1157.43 1105.71 1200.61 1061.72 1243.78C1060.55 1244.93 1058.98 1245.66 1058.31 1246.11Z" fill="#020202"/>
</svg>
