<svg width="1917" height="1916" viewBox="0 0 1917 1916" fill="none" xmlns="http://www.w3.org/2000/svg">
<rect x="0.913086" y="958" width="1354.82" height="1354.82" rx="58" transform="rotate(-45 0.913086 958)" fill="white"/>
<path fill-rule="evenodd" clip-rule="evenodd" d="M1744.49 958.078C1744.7 964.381 1742.66 970.2 1738.06 975.041C1735.99 977.214 1733.84 979.304 1731.72 981.426C1482.12 1231.03 1232.51 1480.63 982.906 1730.24C981.492 1731.65 980.093 1733.08 978.663 1734.48C966.358 1746.5 952.5 1746.58 939.869 1734.68C937.93 1732.85 936.092 1730.92 934.206 1729.03C685.309 1480.13 436.411 1231.24 187.516 982.337C184.924 979.744 182.168 977.283 179.828 974.478C171.407 964.378 171.725 950.488 180.471 940.72C181.803 939.233 183.28 937.874 184.694 936.46C435.23 685.921 685.773 435.39 936.267 184.811C943.062 178.014 950.036 171.796 960.451 173.319C964.898 173.969 969.52 175.35 973.375 177.586C977.317 179.872 980.576 183.451 983.861 186.736C1233.02 435.844 1482.15 684.982 1731.29 934.103C1737.95 940.755 1744.64 947.32 1744.49 958.078ZM213.778 958.339C213.257 958.931 212.735 959.522 212.214 960.113C214.96 963.192 217.559 966.417 220.47 969.329C462.491 1211.39 704.536 1453.44 946.588 1695.47C948.707 1697.59 950.762 1699.84 953.163 1701.59C957.081 1704.45 961.266 1704.46 965.114 1701.34C967.177 1699.67 969 1697.69 970.886 1695.81C1002.52 1664.28 1034.17 1632.77 1065.76 1601.18C1275.78 1391.18 1485.78 1181.17 1695.79 971.161C1697.91 969.04 1700.19 967.049 1702.08 964.736C1703.4 963.119 1704.18 961.059 1705.68 958.34C1207.55 958.339 710.665 958.339 213.778 958.339ZM890.417 599.111C969.088 548.854 1047.34 498.866 1126.4 448.357C1131.42 452.78 1136.34 456.661 1140.75 461.061C1246.37 566.593 1351.94 672.182 1457.52 777.756C1459.88 780.111 1462.13 782.603 1464.71 784.695C1475.11 793.144 1489.91 792.566 1499.4 783.485C1509.23 774.082 1510.23 758.897 1501.54 748.109C1499.05 745.009 1496.06 742.299 1493.23 739.473C1331.57 577.801 1169.9 416.136 1008.24 254.47C994.805 241.038 981.456 227.523 967.91 214.208C961.19 207.604 956.879 207.766 949.899 214.194C948.674 215.322 947.535 216.542 946.356 217.719C805.191 358.885 664.026 500.048 522.874 641.224C520.639 643.459 518.558 645.849 516.404 648.167C516.779 648.683 517.155 649.197 517.53 649.713C596.426 604.967 675.322 560.22 754.166 515.503C799.908 543.573 845.012 571.249 890.417 599.111Z" fill="black"/>
<path fill-rule="evenodd" clip-rule="evenodd" d="M213.778 958.339C710.665 958.339 1207.55 958.339 1705.68 958.339C1704.18 961.059 1703.4 963.118 1702.08 964.735C1700.19 967.048 1697.91 969.039 1695.79 971.16C1485.78 1181.17 1275.78 1391.18 1065.76 1601.18C1034.17 1632.77 1002.52 1664.28 970.887 1695.81C969 1697.69 967.177 1699.67 965.115 1701.34C961.266 1704.46 957.082 1704.45 953.164 1701.59C950.763 1699.84 948.708 1697.59 946.589 1695.47C704.537 1453.44 462.492 1211.4 220.471 969.328C217.56 966.416 214.96 963.191 212.215 960.112C212.735 959.522 213.256 958.931 213.778 958.339ZM945.799 1395.28C942.695 1392.53 940.217 1390.38 937.795 1388.17C899.201 1352.96 857.202 1322.58 810.732 1298.54C779.838 1282.56 747.625 1270.04 713.729 1262.07C700.727 1259.01 690.157 1264.09 685.68 1275.07C681.342 1285.71 684.992 1296.63 695.934 1303.34C717.379 1316.5 736.307 1332.75 754.431 1350.02C784.16 1378.34 811.87 1408.6 837.302 1440.76C870.156 1482.31 902.323 1524.43 933.727 1567.08C945.832 1583.52 967.041 1581.79 975.672 1564.59C1001.7 1512.69 1032.31 1463.45 1064.71 1415.33C1129.13 1319.66 1201.71 1230.75 1284.93 1150.71C1319.31 1117.64 1355.38 1086.55 1393.24 1057.51C1404.35 1048.99 1406.82 1037.34 1400.45 1026.75C1394.44 1016.77 1383.14 1013.43 1370.74 1018.5C1362.12 1022.03 1353.63 1025.93 1345.31 1030.13C1287.62 1059.27 1234.82 1095.81 1184.91 1136.64C1096.65 1208.83 1020.77 1292.6 953.739 1384.59C951.225 1388.04 948.65 1391.45 945.799 1395.28Z" fill="#BAD37C"/>
<path fill-rule="evenodd" clip-rule="evenodd" d="M890.417 599.111C845.012 571.25 799.908 543.573 754.166 515.504C675.322 560.221 596.427 604.968 517.53 649.714C517.155 649.198 516.779 648.684 516.404 648.168C518.557 645.85 520.638 643.46 522.874 641.225C664.026 500.048 805.191 358.885 946.355 217.721C947.534 216.543 948.673 215.324 949.898 214.196C956.877 207.767 961.189 207.605 967.909 214.21C981.455 227.524 994.805 241.04 1008.24 254.472C1169.9 416.138 1331.57 577.803 1493.23 739.475C1496.05 742.301 1499.04 745.011 1501.54 748.111C1510.23 758.899 1509.23 774.084 1499.4 783.487C1489.91 792.568 1475.11 793.146 1464.71 784.697C1462.13 782.604 1459.88 780.113 1457.52 777.758C1351.94 672.184 1246.37 566.595 1140.75 461.063C1136.34 456.663 1131.42 452.782 1126.4 448.359C1047.34 498.866 969.088 548.854 890.417 599.111Z" fill="white"/>
<path fill-rule="evenodd" clip-rule="evenodd" d="M945.799 1395.28C948.651 1391.45 951.226 1388.04 953.739 1384.59C1020.77 1292.6 1096.66 1208.83 1184.91 1136.64C1234.82 1095.81 1287.63 1059.27 1345.31 1030.14C1353.63 1025.94 1362.12 1022.03 1370.74 1018.5C1383.14 1013.43 1394.44 1016.77 1400.45 1026.75C1406.82 1037.34 1404.35 1048.99 1393.24 1057.51C1355.38 1086.55 1319.31 1117.64 1284.93 1150.71C1201.71 1230.75 1129.13 1319.66 1064.71 1415.33C1032.31 1463.45 1001.7 1512.69 975.672 1564.59C967.041 1581.79 945.832 1583.53 933.727 1567.08C902.324 1524.43 870.157 1482.31 837.302 1440.77C811.87 1408.61 784.16 1378.34 754.431 1350.02C736.307 1332.75 717.379 1316.5 695.934 1303.34C684.993 1296.63 681.342 1285.71 685.68 1275.07C690.157 1264.09 700.727 1259.01 713.729 1262.07C747.625 1270.04 779.838 1282.56 810.732 1298.54C857.203 1322.58 899.202 1352.96 937.795 1388.17C940.217 1390.38 942.694 1392.53 945.799 1395.28Z" fill="black"/>
</svg>
