<svg width="1916" height="1916" viewBox="0 0 1916 1916" fill="none" xmlns="http://www.w3.org/2000/svg">
<rect y="958" width="1354.82" height="1354.82" rx="58" transform="rotate(-45 0 958)" fill="white"/>
<path fill-rule="evenodd" clip-rule="evenodd" d="M1323.38 527.944C1362.03 488.206 1424.98 491.746 1457.34 537.883C1477.27 522.241 1500.12 515.174 1525.29 517.556C1543.51 519.281 1560.27 525.927 1574.3 537.997C1601.94 561.776 1619.44 601.711 1597.74 649.303C1642.37 660.887 1673.33 687.473 1684.67 733.032C1696.06 778.796 1681.02 816.727 1646.72 848.85C1649.09 851.335 1651.53 853.987 1654.07 856.532C1679.98 882.47 1705.93 908.37 1731.81 934.34C1734.86 937.395 1737.91 940.556 1740.32 944.098C1746.52 953.181 1745.68 965.43 1738.56 973.79C1736.62 976.067 1734.38 978.085 1732.26 980.206C1482.18 1230.28 1232.11 1480.36 982.032 1730.43C980.383 1732.08 978.769 1733.77 977.067 1735.37C967.096 1744.71 954.494 1745.54 943.495 1737.4C940.838 1735.43 938.524 1732.97 936.173 1730.62C685.866 1480.34 435.562 1230.05 185.363 979.66C181.246 975.539 177.483 970.527 175.21 965.222C171.523 956.617 173.647 948.223 179.582 940.978C181.264 938.925 183.306 937.166 185.191 935.281C435.252 685.221 685.312 435.161 935.375 185.106C937.496 182.985 939.521 180.744 941.814 178.826C951.802 170.467 964.405 170.164 974.771 178.125C977.923 180.545 980.822 183.33 983.638 186.146C1094.43 296.897 1205.2 407.664 1315.92 518.486C1318.74 521.3 1320.9 524.763 1323.38 527.944ZM211.043 958.238C215.098 962.752 217.552 965.754 220.279 968.481C462.302 1210.54 704.347 1452.59 946.398 1694.62C948.516 1696.74 950.585 1698.96 952.954 1700.77C956.858 1703.74 960.997 1703.71 964.87 1700.6C966.682 1699.15 968.282 1697.42 969.933 1695.78C1002.5 1663.3 1035.1 1630.86 1067.63 1598.34C1275.99 1390 1484.33 1181.65 1692.68 973.299C1695.74 970.236 1698.9 967.254 1701.8 964.043C1703.01 962.697 1703.67 960.851 1705.14 958.239C1207.3 958.238 710.582 958.238 211.043 958.238ZM1126.24 447.825C1131.18 452.158 1135.87 455.83 1140.05 460.009C1229.65 549.516 1319.19 639.079 1408.75 728.632C1441.03 760.914 1473.28 793.225 1505.61 825.464C1521.94 841.753 1541.42 851.978 1564.46 854.655C1616.22 860.671 1663.25 823.651 1669.38 771.109C1675.63 717.526 1637.05 673.161 1589.04 666.613C1582.28 665.69 1575.48 664.991 1566.72 663.954C1581.36 646.11 1590.81 627.578 1589.45 605.511C1588.07 583.074 1578.52 564.52 1560.66 550.61C1547.34 540.228 1532.1 535.099 1515.18 535.18C1488.51 535.307 1468.51 548.396 1451.61 570.001C1439.91 539.013 1420.64 518.956 1387.31 518.741C1354.21 518.527 1333.8 536.872 1322.5 568.141C1318.99 564.719 1316.15 562.021 1313.39 559.253C1207.14 452.935 1100.9 346.607 994.643 240.293C986.163 231.808 977.626 223.377 969.063 214.975C960.57 206.642 956.933 206.713 948.202 215.205C947.963 215.437 947.727 215.674 947.492 215.909C805.384 358.015 663.279 500.119 521.191 642.243C519.472 643.962 517.999 645.928 516.411 647.778C516.771 648.229 517.131 648.681 517.491 649.132C596.4 604.375 675.31 559.617 754.003 514.985C799.925 543.166 845.027 570.842 890.262 598.601C968.858 548.384 1046.87 498.536 1126.24 447.825Z" fill="black"/>
<path fill-rule="evenodd" clip-rule="evenodd" d="M211.043 958.238C710.582 958.238 1207.3 958.238 1705.14 958.238C1703.67 960.849 1703.01 962.696 1701.8 964.042C1698.9 967.253 1695.74 970.234 1692.68 973.298C1484.33 1181.65 1275.99 1390 1067.63 1598.34C1035.1 1630.86 1002.5 1663.3 969.933 1695.78C968.283 1697.42 966.682 1699.15 964.87 1700.6C960.997 1703.71 956.858 1703.74 952.954 1700.76C950.585 1698.96 948.516 1696.74 946.398 1694.62C704.347 1452.59 462.302 1210.54 220.279 968.48C217.552 965.753 215.098 962.751 211.043 958.238ZM959.219 1043.4C946.969 1044.48 934.668 1045.17 922.484 1046.76C909.916 1048.39 897.668 1051.57 886.415 1057.76C875.761 1063.62 870.877 1071.89 872.042 1084.72C875.621 1124.16 878.357 1163.67 881.391 1203.15C883.991 1236.99 886.968 1270.82 888.9 1304.7C889.589 1316.8 895.578 1323.72 905.53 1328.45C909.714 1330.43 914.126 1332.09 918.594 1333.3C940.789 1339.32 963.367 1339.93 985.886 1336.15C995.6 1334.52 1005.19 1331.21 1014.35 1327.48C1023.57 1323.73 1028.78 1316.49 1029.42 1305.88C1030.76 1283.63 1032.68 1261.41 1034.38 1239.18C1036.14 1216.29 1037.94 1193.4 1039.67 1170.5C1041.9 1140.97 1043.9 1111.42 1046.36 1081.9C1047.22 1071.62 1043.09 1064.27 1034.62 1059.52C1028.3 1055.96 1021.49 1052.96 1014.56 1050.85C996.581 1045.39 978.01 1043.9 959.219 1043.4ZM959.063 1525.89C999.877 1527.3 1038.57 1492.8 1038.55 1446.96C1038.53 1403.15 1003.07 1367.46 959.309 1367.4C915.533 1367.35 879.706 1403 879.8 1446.72C879.901 1494.19 919.475 1527.22 959.063 1525.89Z" fill="#FFFF00"/>
<path fill-rule="evenodd" clip-rule="evenodd" d="M1126.24 447.825C1046.88 498.537 968.858 548.385 890.262 598.602C845.028 570.843 799.925 543.166 754.003 514.986C675.311 559.619 596.4 604.377 517.491 649.133C517.131 648.682 516.771 648.23 516.411 647.779C517.999 645.928 519.473 643.963 521.191 642.244C663.279 500.119 805.384 358.015 947.49 215.909C947.725 215.674 947.961 215.437 948.2 215.205C956.931 206.713 960.568 206.642 969.061 214.975C977.624 223.377 986.161 231.808 994.641 240.293C1100.9 346.607 1207.14 452.935 1313.39 559.253C1316.15 562.021 1318.99 564.719 1322.5 568.141C1333.8 536.871 1354.21 518.527 1387.31 518.741C1420.64 518.956 1439.91 539.012 1451.61 570.001C1468.51 548.396 1488.51 535.307 1515.18 535.18C1532.09 535.099 1547.33 540.228 1560.66 550.61C1578.52 564.52 1588.07 583.075 1589.45 605.511C1590.8 627.578 1581.36 646.111 1566.72 663.954C1575.48 664.991 1582.28 665.69 1589.04 666.613C1637.04 673.161 1675.63 717.526 1669.37 771.109C1663.24 823.651 1616.22 860.671 1564.45 854.655C1541.41 851.977 1521.94 841.753 1505.6 825.464C1473.28 793.225 1441.03 760.914 1408.74 728.632C1319.19 639.079 1229.65 549.516 1140.05 460.009C1135.87 455.829 1131.18 452.158 1126.24 447.825ZM1508.81 662.972C1518.73 668.391 1527.54 674.706 1533.47 684.294C1539.3 693.729 1540.9 704.111 1540.04 714.979C1539.14 726.187 1536.64 737.322 1527.9 744.731C1519.86 751.548 1510.13 756.366 1501.46 761.857C1522.85 765.099 1544.02 745.085 1547.53 717.721C1551.19 689.311 1533.93 664.323 1508.81 662.972Z" fill="white"/>
<path fill-rule="evenodd" clip-rule="evenodd" d="M959.219 1043.4C978.01 1043.9 996.58 1045.39 1014.56 1050.85C1021.5 1052.96 1028.3 1055.96 1034.62 1059.51C1043.09 1064.27 1047.22 1071.62 1046.36 1081.9C1043.9 1111.41 1041.9 1140.97 1039.67 1170.5C1037.94 1193.4 1036.14 1216.29 1034.38 1239.18C1032.68 1261.41 1030.76 1283.63 1029.42 1305.88C1028.78 1316.49 1023.57 1323.73 1014.35 1327.48C1005.19 1331.21 995.599 1334.52 985.885 1336.15C963.366 1339.93 940.788 1339.32 918.593 1333.3C914.124 1332.09 909.712 1330.43 905.529 1328.45C895.577 1323.72 889.589 1316.8 888.899 1304.7C886.967 1270.82 883.99 1236.99 881.39 1203.15C878.357 1163.67 875.62 1124.16 872.041 1084.72C870.876 1071.89 875.76 1063.62 886.414 1057.76C897.667 1051.57 909.915 1048.39 922.483 1046.75C934.668 1045.17 946.969 1044.48 959.219 1043.4Z" fill="black"/>
<path fill-rule="evenodd" clip-rule="evenodd" d="M959.063 1525.89C919.475 1527.22 879.901 1494.19 879.8 1446.72C879.706 1403 915.532 1367.35 959.309 1367.41C1003.07 1367.46 1038.54 1403.15 1038.55 1446.96C1038.57 1492.8 999.877 1527.3 959.063 1525.89Z" fill="black"/>
<path fill-rule="evenodd" clip-rule="evenodd" d="M1508.81 662.972C1533.93 664.323 1551.18 689.311 1547.53 717.721C1544.02 745.084 1522.85 765.099 1501.47 761.857C1510.13 756.366 1519.86 751.548 1527.9 744.731C1536.64 737.322 1539.14 726.187 1540.04 714.979C1540.9 704.112 1539.3 693.729 1533.47 684.294C1527.54 674.706 1518.73 668.391 1508.81 662.972Z" fill="black"/>
</svg>
