<svg width="1916" height="1916" viewBox="0 0 1916 1916" fill="none" xmlns="http://www.w3.org/2000/svg">
<rect y="958" width="1354.82" height="1354.82" rx="58" transform="rotate(-45 0 958)" fill="white"/>
<path fill-rule="evenodd" clip-rule="evenodd" d="M1743.33 958.991C1743.54 965.294 1741.5 971.113 1736.9 975.954C1734.83 978.127 1732.68 980.217 1730.56 982.339C1480.95 1231.94 1231.35 1481.55 981.746 1731.15C980.332 1732.57 978.933 1733.99 977.503 1735.39C965.198 1747.42 951.34 1747.5 938.709 1735.59C936.77 1733.76 934.932 1731.83 933.046 1729.94C684.149 1481.05 435.251 1232.15 186.356 983.25C183.764 980.657 181.008 978.196 178.668 975.391C170.247 965.291 170.565 951.401 179.311 941.633C180.643 940.146 182.12 938.787 183.534 937.373C434.07 686.834 684.613 436.303 935.107 185.724C941.902 178.927 948.876 172.709 959.291 174.232C963.738 174.882 968.36 176.263 972.215 178.499C976.157 180.785 979.416 184.364 982.701 187.649C1231.86 436.757 1480.99 685.895 1730.13 935.016C1736.78 941.668 1743.48 948.233 1743.33 958.991ZM212.618 959.252C212.097 959.844 211.575 960.435 211.054 961.026C213.8 964.105 216.399 967.33 219.31 970.242C461.331 1212.31 703.376 1454.35 945.428 1696.39C947.547 1698.51 949.602 1700.75 952.003 1702.51C955.921 1705.36 960.106 1705.37 963.954 1702.25C966.017 1700.58 967.84 1698.61 969.726 1696.73C1001.36 1665.19 1033.01 1633.68 1064.6 1602.1C1274.62 1392.1 1484.62 1182.08 1694.63 972.074C1696.75 969.953 1699.03 967.962 1700.92 965.649C1702.24 964.032 1703.02 961.972 1704.51 959.253C1206.39 959.252 709.505 959.252 212.618 959.252ZM889.257 600.024C967.928 549.767 1046.18 499.779 1125.24 449.27C1130.26 453.693 1135.18 457.574 1139.59 461.974C1245.21 567.506 1350.78 673.095 1456.36 778.669C1458.72 781.024 1460.97 783.516 1463.55 785.608C1473.95 794.057 1488.75 793.479 1498.24 784.398C1508.07 774.995 1509.07 759.81 1500.38 749.022C1497.88 745.922 1494.89 743.212 1492.07 740.386C1330.41 578.714 1168.74 417.049 1007.08 255.383C993.645 241.951 980.296 228.436 966.75 215.121C960.03 208.517 955.719 208.679 948.739 215.107C947.514 216.235 946.375 217.455 945.196 218.632C804.031 359.798 662.866 500.961 521.714 642.137C519.479 644.372 517.398 646.762 515.244 649.08C515.619 649.596 515.995 650.11 516.37 650.626C595.266 605.88 674.162 561.133 753.006 516.416C798.748 544.486 843.852 572.162 889.257 600.024Z" fill="black"/>
<path fill-rule="evenodd" clip-rule="evenodd" d="M212.618 959.252C709.505 959.252 1206.39 959.252 1704.52 959.252C1703.02 961.972 1702.24 964.031 1700.92 965.648C1699.03 967.961 1696.75 969.952 1694.63 972.073C1484.62 1182.08 1274.62 1392.1 1064.6 1602.1C1033.01 1633.68 1001.36 1665.19 969.727 1696.73C967.84 1698.61 966.017 1700.58 963.955 1702.25C960.106 1705.37 955.922 1705.36 952.004 1702.51C949.603 1700.75 947.548 1698.51 945.429 1696.39C703.377 1454.35 461.332 1212.31 219.311 970.241C216.4 967.329 213.8 964.104 211.055 961.025C211.575 960.435 212.096 959.844 212.618 959.252Z" fill="white"/>
<path fill-rule="evenodd" clip-rule="evenodd" d="M889.257 600.024C843.852 572.163 798.748 544.486 753.006 516.417C674.162 561.134 595.267 605.881 516.37 650.627C515.995 650.111 515.619 649.597 515.244 649.081C517.397 646.763 519.478 644.373 521.714 642.138C662.866 500.961 804.031 359.798 945.195 218.634C946.374 217.456 947.513 216.237 948.738 215.109C955.717 208.68 960.029 208.518 966.749 215.123C980.295 228.437 993.645 241.953 1007.08 255.385C1168.74 417.051 1330.41 578.716 1492.07 740.388C1494.89 743.214 1497.88 745.924 1500.38 749.024C1509.07 759.812 1508.07 774.997 1498.24 784.4C1488.75 793.481 1473.95 794.059 1463.55 785.61C1460.97 783.517 1458.72 781.026 1456.36 778.671C1350.78 673.097 1245.21 567.508 1139.59 461.976C1135.18 457.576 1130.26 453.695 1125.24 449.272C1046.18 499.779 967.928 549.767 889.257 600.024Z" fill="white"/>
<path d="M916 1351.6V1327.6C916 1310.2 918 1295.9 922 1284.7C926.2 1273.5 932.6 1264.1 941.2 1256.5C950 1248.7 961.6 1241.2 976 1234C988.6 1227.6 998.4 1221.7 1005.4 1216.3C1012.4 1210.7 1017.2 1205 1019.8 1199.2C1022.6 1193.4 1024 1186.6 1024 1178.8C1024 1166.2 1018.9 1155.8 1008.7 1147.6C998.5 1139.2 984.6 1135 967 1135C946 1135 929.8 1139.7 918.4 1149.1C907.2 1158.3 900.8 1170.6 899.2 1186H825.4C827.6 1151.2 840.4 1123.3 863.8 1102.3C887.4 1081.3 920.8 1070.8 964 1070.8C992.4 1070.8 1016.9 1075.6 1037.5 1085.2C1058.1 1094.8 1074 1107.8 1085.2 1124.2C1096.4 1140.6 1102 1159 1102 1179.4C1102 1200.2 1096.7 1217.8 1086.1 1232.2C1075.7 1246.6 1059.4 1259.4 1037.2 1270.6C1024.2 1277.2 1014 1283.4 1006.6 1289.2C999.4 1295 994.3 1301.4 991.3 1308.4C988.3 1315.2 986.8 1323.8 986.8 1334.2V1351.6H916ZM953.2 1476.4C938.6 1476.4 926.7 1471.9 917.5 1462.9C908.5 1453.9 904 1442.9 904 1429.9C904 1416.3 908.5 1405 917.5 1396C926.7 1386.8 938.5 1382.2 952.9 1382.2C967.5 1382.2 979.6 1386.8 989.2 1396C998.8 1405 1003.6 1416.2 1003.6 1429.6C1003.6 1442.8 998.8 1453.9 989.2 1462.9C979.6 1471.9 967.6 1476.4 953.2 1476.4Z" fill="black"/>
</svg>
